# xmcd
#
# Track frame offsets:
#	150
#	15076
#	30068
#	44608
#	60247
#	75872
#	91750
#	118615
#	134334
#	156074
#	176754
#	195594
#	211472
#
# Disc length: 2993 seconds
#
# Revision: 0
# Processed by: cddbd v1.4PL0 Copyright (c) Steve Scherf et al.
# Submitted via: EasyCDDAExtractor 5.0.4.1
#
DISCID=8f0baf0d
DTITLE=Don Nix - Going Down - The Songs Of Don Nix
DYEAR=2002
DGENRE=Memphis Blues
TTITLE0=Black Cat Moan
TTITLE1=On The Road Again
TTITLE2=Right Where You Want Me
TTITLE3=Same Old Blues
TTITLE4=Lucinda
TTITLE5=Palace Of The King
TTITLE6=Going Down
TTITLE7=Going Back To Luka
TTITLE8=Like A Road Leading Home
TTITLE9=One More Repossession
TTITLE10=Living On The Highway
TTITLE11=Plastic Flowers
TTITLE12=Everybody Wants To Go To Heave
EXTD=
EXTT0=
EXTT1=
EXTT2=
EXTT3=
EXTT4=
EXTT5=
EXTT6=
EXTT7=
EXTT8=
EXTT9=
EXTT10=
EXTT11=
EXTT12=
PLAYORDER=
